<svg   id="chart"   width="1200"   height="675"   viewBox="0 0 1200 675"   xmlns="http://www.w3.org/2000/svg" >      <path d="M 0,171.37964014026534 C 17.200000000000003,152.49070087967416 51.60000000000001,24.46560128582412 86,76.93494383730945 C 120.4,129.40428638879476 137.6,354.1148790837848 172,433.726352897692 C 206.4,513.3378267115992 223.6,471.1652635957982 258,474.99231290684537 C 292.4,478.81936221789255 309.6,449.5190023702073 344,452.861599452928 C 378.4,456.20419653564863 395.6,485.71070558409383 430,491.7052983204488 C 464.4,497.6998910568037 481.6,486.23270117228424 516,482.83456313470265 C 550.4,479.43642509712106 567.6,524.9890246805104 602,474.71460813254095 C 636.4,424.4401915845715 653.6,299.7213357941165 688,231.46248039485556 C 722.4,163.20362499559462 739.6,73.00848593715301 774,133.4203311362363 C 808.4,193.83217633531962 825.6,522.7799826972105 860,533.5217063902721 C 894.4,544.2634300833338 911.6,196.36556668945022 946,187.12894960154443 C 980.4,177.89233251363865 997.6,469.4819816840533 1032,487.33862095074323 C 1066.4,505.19526021743314 1083.6,280.11464939178745 1118,276.41214593499404 C 1152.4,272.70964247820064 1186.8,430.34331212041985 1204,468.8261036667763,L 1200 675,L 0 675Z" fill="#444cf71a" />   <path d="M 0,171.37964014026534 C 17.200000000000003,152.49070087967416 51.60000000000001,24.46560128582412 86,76.93494383730945 C 120.4,129.40428638879476 137.6,354.1148790837848 172,433.726352897692 C 206.4,513.3378267115992 223.6,471.1652635957982 258,474.99231290684537 C 292.4,478.81936221789255 309.6,449.5190023702073 344,452.861599452928 C 378.4,456.20419653564863 395.6,485.71070558409383 430,491.7052983204488 C 464.4,497.6998910568037 481.6,486.23270117228424 516,482.83456313470265 C 550.4,479.43642509712106 567.6,524.9890246805104 602,474.71460813254095 C 636.4,424.4401915845715 653.6,299.7213357941165 688,231.46248039485556 C 722.4,163.20362499559462 739.6,73.00848593715301 774,133.4203311362363 C 808.4,193.83217633531962 825.6,522.7799826972105 860,533.5217063902721 C 894.4,544.2634300833338 911.6,196.36556668945022 946,187.12894960154443 C 980.4,177.89233251363865 997.6,469.4819816840533 1032,487.33862095074323 C 1066.4,505.19526021743314 1083.6,280.11464939178745 1118,276.41214593499404 C 1152.4,272.70964247820064 1186.8,430.34331212041985 1204,468.8261036667763" fill="none" stroke="#444cf7" stroke-width="4px" />   <g>   		<circle cx="0" cy="171.37964014026534" r="8" fill="#444cf7" />,		<circle cx="86" cy="76.93494383730945" r="8" fill="#444cf7" />,		<circle cx="172" cy="433.726352897692" r="8" fill="#444cf7" />,		<circle cx="258" cy="474.99231290684537" r="8" fill="#444cf7" />,		<circle cx="344" cy="452.861599452928" r="8" fill="#444cf7" />,		<circle cx="430" cy="491.7052983204488" r="8" fill="#444cf7" />,		<circle cx="516" cy="482.83456313470265" r="8" fill="#444cf7" />,		<circle cx="602" cy="474.71460813254095" r="8" fill="#444cf7" />,		<circle cx="688" cy="231.46248039485556" r="8" fill="#444cf7" />,		<circle cx="774" cy="133.4203311362363" r="8" fill="#444cf7" />,		<circle cx="860" cy="533.5217063902721" r="8" fill="#444cf7" />,		<circle cx="946" cy="187.12894960154443" r="8" fill="#444cf7" />,		<circle cx="1032" cy="487.33862095074323" r="8" fill="#444cf7" />,		<circle cx="1118" cy="276.41214593499404" r="8" fill="#444cf7" />,		<circle cx="1204" cy="468.8261036667763" r="8" fill="#444cf7" />   </g> </svg>